<mxfile host="app.diagrams.net" modified="2023-06-29T07:19:01.398Z" agent="Mozilla/5.0 (Windows NT 10.0; Win64; x64) AppleWebKit/537.36 (KHTML, like Gecko) Chrome/114.0.0.0 Safari/537.36" etag="xGP7_PAD-bhU5CN0CTap" version="21.1.8" type="github">
  <diagram id="C5RBs43oDa-KdzZeNtuy" name="Page-1">
    <mxGraphModel dx="2261" dy="756" grid="1" gridSize="10" guides="1" tooltips="1" connect="1" arrows="1" fold="1" page="1" pageScale="1" pageWidth="827" pageHeight="1169" math="0" shadow="0">
      <root>
        <mxCell id="WIyWlLk6GJQsqaUBKTNV-0" />
        <mxCell id="WIyWlLk6GJQsqaUBKTNV-1" parent="WIyWlLk6GJQsqaUBKTNV-0" />
        <mxCell id="v7aO1mbHzOOfTeijfpOA-35" value="" style="rounded=0;whiteSpace=wrap;html=1;fillColor=#d5e8d4;strokeColor=#82b366;" vertex="1" parent="WIyWlLk6GJQsqaUBKTNV-1">
          <mxGeometry x="-219.5" y="310" width="630" height="580" as="geometry" />
        </mxCell>
        <mxCell id="Cis5JP788cvHrnFn9T93-7" style="edgeStyle=orthogonalEdgeStyle;rounded=0;orthogonalLoop=1;jettySize=auto;html=1;exitX=0.5;exitY=1;exitDx=0;exitDy=0;" parent="WIyWlLk6GJQsqaUBKTNV-1" source="Cis5JP788cvHrnFn9T93-1" target="Cis5JP788cvHrnFn9T93-2" edge="1">
          <mxGeometry relative="1" as="geometry" />
        </mxCell>
        <mxCell id="Cis5JP788cvHrnFn9T93-1" value="&lt;b&gt;执行stop停机脚本&lt;/b&gt;" style="rounded=1;whiteSpace=wrap;html=1;" parent="WIyWlLk6GJQsqaUBKTNV-1" vertex="1">
          <mxGeometry x="-382" y="60" width="150" height="50" as="geometry" />
        </mxCell>
        <mxCell id="Cis5JP788cvHrnFn9T93-9" style="edgeStyle=orthogonalEdgeStyle;rounded=0;orthogonalLoop=1;jettySize=auto;html=1;exitX=0.5;exitY=1;exitDx=0;exitDy=0;entryX=0.5;entryY=0;entryDx=0;entryDy=0;" parent="WIyWlLk6GJQsqaUBKTNV-1" source="Cis5JP788cvHrnFn9T93-2" target="Cis5JP788cvHrnFn9T93-8" edge="1">
          <mxGeometry relative="1" as="geometry" />
        </mxCell>
        <mxCell id="Cis5JP788cvHrnFn9T93-26" style="edgeStyle=orthogonalEdgeStyle;rounded=0;orthogonalLoop=1;jettySize=auto;html=1;exitX=0;exitY=0.5;exitDx=0;exitDy=0;entryX=0;entryY=0.5;entryDx=0;entryDy=0;" parent="WIyWlLk6GJQsqaUBKTNV-1" source="Cis5JP788cvHrnFn9T93-2" target="Cis5JP788cvHrnFn9T93-24" edge="1">
          <mxGeometry relative="1" as="geometry">
            <Array as="points">
              <mxPoint x="-612" y="185" />
              <mxPoint x="-612" y="540" />
            </Array>
          </mxGeometry>
        </mxCell>
        <mxCell id="Cis5JP788cvHrnFn9T93-27" value="5s/次，轮询探测获取同步请求处理状态" style="edgeLabel;html=1;align=center;verticalAlign=middle;resizable=0;points=[];" parent="Cis5JP788cvHrnFn9T93-26" vertex="1" connectable="0">
          <mxGeometry x="-0.244" y="-2" relative="1" as="geometry">
            <mxPoint x="-26" y="67" as="offset" />
          </mxGeometry>
        </mxCell>
        <mxCell id="Cis5JP788cvHrnFn9T93-2" value="修改环境变量APP运行态" style="rounded=0;whiteSpace=wrap;html=1;" parent="WIyWlLk6GJQsqaUBKTNV-1" vertex="1">
          <mxGeometry x="-387" y="160" width="160" height="50" as="geometry" />
        </mxCell>
        <mxCell id="Cis5JP788cvHrnFn9T93-10" style="edgeStyle=orthogonalEdgeStyle;rounded=0;orthogonalLoop=1;jettySize=auto;html=1;exitX=0.5;exitY=1;exitDx=0;exitDy=0;entryX=1;entryY=0;entryDx=0;entryDy=0;" parent="WIyWlLk6GJQsqaUBKTNV-1" source="Cis5JP788cvHrnFn9T93-4" target="Cis5JP788cvHrnFn9T93-8" edge="1">
          <mxGeometry relative="1" as="geometry">
            <Array as="points">
              <mxPoint x="-38" y="258" />
              <mxPoint x="-222" y="258" />
            </Array>
          </mxGeometry>
        </mxCell>
        <mxCell id="Cis5JP788cvHrnFn9T93-11" value="轮询监听" style="edgeLabel;html=1;align=center;verticalAlign=middle;resizable=0;points=[];" parent="Cis5JP788cvHrnFn9T93-10" vertex="1" connectable="0">
          <mxGeometry x="0.2641" relative="1" as="geometry">
            <mxPoint as="offset" />
          </mxGeometry>
        </mxCell>
        <mxCell id="Cis5JP788cvHrnFn9T93-4" value="F5探测指针" style="rounded=1;whiteSpace=wrap;html=1;" parent="WIyWlLk6GJQsqaUBKTNV-1" vertex="1">
          <mxGeometry x="-113" y="60" width="150" height="50" as="geometry" />
        </mxCell>
        <mxCell id="Cis5JP788cvHrnFn9T93-12" style="edgeStyle=orthogonalEdgeStyle;rounded=0;orthogonalLoop=1;jettySize=auto;html=1;exitX=1;exitY=1;exitDx=0;exitDy=0;entryX=0.68;entryY=1.02;entryDx=0;entryDy=0;entryPerimeter=0;dashed=1;" parent="WIyWlLk6GJQsqaUBKTNV-1" source="Cis5JP788cvHrnFn9T93-8" target="Cis5JP788cvHrnFn9T93-4" edge="1">
          <mxGeometry relative="1" as="geometry" />
        </mxCell>
        <mxCell id="Cis5JP788cvHrnFn9T93-13" value="通知F5不再发送外部请求" style="edgeLabel;html=1;align=center;verticalAlign=middle;resizable=0;points=[];" parent="Cis5JP788cvHrnFn9T93-12" vertex="1" connectable="0">
          <mxGeometry x="0.2761" y="-1" relative="1" as="geometry">
            <mxPoint x="1" y="7" as="offset" />
          </mxGeometry>
        </mxCell>
        <mxCell id="Cis5JP788cvHrnFn9T93-16" style="edgeStyle=orthogonalEdgeStyle;rounded=0;orthogonalLoop=1;jettySize=auto;html=1;exitX=0.5;exitY=1;exitDx=0;exitDy=0;entryX=0.5;entryY=0;entryDx=0;entryDy=0;" parent="WIyWlLk6GJQsqaUBKTNV-1" source="Cis5JP788cvHrnFn9T93-8" target="Cis5JP788cvHrnFn9T93-14" edge="1">
          <mxGeometry relative="1" as="geometry" />
        </mxCell>
        <mxCell id="Cis5JP788cvHrnFn9T93-18" value="同步任务" style="edgeLabel;html=1;align=center;verticalAlign=middle;resizable=0;points=[];" parent="Cis5JP788cvHrnFn9T93-16" vertex="1" connectable="0">
          <mxGeometry x="-0.1036" y="4" relative="1" as="geometry">
            <mxPoint x="-17" y="-4" as="offset" />
          </mxGeometry>
        </mxCell>
        <mxCell id="Cis5JP788cvHrnFn9T93-29" style="edgeStyle=orthogonalEdgeStyle;rounded=0;orthogonalLoop=1;jettySize=auto;html=1;exitX=0.5;exitY=1;exitDx=0;exitDy=0;" parent="WIyWlLk6GJQsqaUBKTNV-1" source="Cis5JP788cvHrnFn9T93-8" target="Cis5JP788cvHrnFn9T93-28" edge="1">
          <mxGeometry relative="1" as="geometry" />
        </mxCell>
        <mxCell id="Cis5JP788cvHrnFn9T93-33" style="edgeStyle=orthogonalEdgeStyle;rounded=0;orthogonalLoop=1;jettySize=auto;html=1;exitX=0.5;exitY=1;exitDx=0;exitDy=0;entryX=0.5;entryY=0;entryDx=0;entryDy=0;" parent="WIyWlLk6GJQsqaUBKTNV-1" source="Cis5JP788cvHrnFn9T93-8" target="Cis5JP788cvHrnFn9T93-15" edge="1">
          <mxGeometry relative="1" as="geometry" />
        </mxCell>
        <mxCell id="Cis5JP788cvHrnFn9T93-34" value="异步任务" style="edgeLabel;html=1;align=center;verticalAlign=middle;resizable=0;points=[];" parent="Cis5JP788cvHrnFn9T93-33" vertex="1" connectable="0">
          <mxGeometry x="0.1849" y="3" relative="1" as="geometry">
            <mxPoint as="offset" />
          </mxGeometry>
        </mxCell>
        <mxCell id="Cis5JP788cvHrnFn9T93-35" style="edgeStyle=orthogonalEdgeStyle;rounded=0;orthogonalLoop=1;jettySize=auto;html=1;exitX=0.5;exitY=1;exitDx=0;exitDy=0;" parent="WIyWlLk6GJQsqaUBKTNV-1" source="Cis5JP788cvHrnFn9T93-8" target="Cis5JP788cvHrnFn9T93-21" edge="1">
          <mxGeometry relative="1" as="geometry" />
        </mxCell>
        <mxCell id="Cis5JP788cvHrnFn9T93-36" value="定时任务" style="edgeLabel;html=1;align=center;verticalAlign=middle;resizable=0;points=[];" parent="Cis5JP788cvHrnFn9T93-35" vertex="1" connectable="0">
          <mxGeometry x="0.5636" y="1" relative="1" as="geometry">
            <mxPoint as="offset" />
          </mxGeometry>
        </mxCell>
        <mxCell id="Cis5JP788cvHrnFn9T93-8" value="状态不为running" style="rhombus;whiteSpace=wrap;html=1;" parent="WIyWlLk6GJQsqaUBKTNV-1" vertex="1">
          <mxGeometry x="-394.5" y="240" width="175" height="70" as="geometry" />
        </mxCell>
        <mxCell id="Cis5JP788cvHrnFn9T93-25" style="edgeStyle=orthogonalEdgeStyle;rounded=0;orthogonalLoop=1;jettySize=auto;html=1;exitX=0.5;exitY=1;exitDx=0;exitDy=0;" parent="WIyWlLk6GJQsqaUBKTNV-1" source="Cis5JP788cvHrnFn9T93-14" target="Cis5JP788cvHrnFn9T93-24" edge="1">
          <mxGeometry relative="1" as="geometry" />
        </mxCell>
        <mxCell id="Cis5JP788cvHrnFn9T93-14" value="程序计数器，判定程序内同步任务是否全部结束" style="rounded=0;whiteSpace=wrap;html=1;" parent="WIyWlLk6GJQsqaUBKTNV-1" vertex="1">
          <mxGeometry x="-572" y="410" width="120" height="60" as="geometry" />
        </mxCell>
        <mxCell id="Cis5JP788cvHrnFn9T93-37" style="edgeStyle=orthogonalEdgeStyle;rounded=0;orthogonalLoop=1;jettySize=auto;html=1;exitX=0.5;exitY=1;exitDx=0;exitDy=0;" parent="WIyWlLk6GJQsqaUBKTNV-1" source="Cis5JP788cvHrnFn9T93-15" edge="1">
          <mxGeometry relative="1" as="geometry">
            <mxPoint x="-102" y="570" as="targetPoint" />
          </mxGeometry>
        </mxCell>
        <mxCell id="Cis5JP788cvHrnFn9T93-15" value="监听线程池运行情况" style="rounded=0;whiteSpace=wrap;html=1;" parent="WIyWlLk6GJQsqaUBKTNV-1" vertex="1">
          <mxGeometry x="-162" y="410" width="120" height="60" as="geometry" />
        </mxCell>
        <mxCell id="Cis5JP788cvHrnFn9T93-38" style="edgeStyle=orthogonalEdgeStyle;rounded=0;orthogonalLoop=1;jettySize=auto;html=1;exitX=0.5;exitY=1;exitDx=0;exitDy=0;" parent="WIyWlLk6GJQsqaUBKTNV-1" source="Cis5JP788cvHrnFn9T93-21" edge="1">
          <mxGeometry relative="1" as="geometry">
            <mxPoint x="59" y="570" as="targetPoint" />
          </mxGeometry>
        </mxCell>
        <mxCell id="Cis5JP788cvHrnFn9T93-21" value="监听trigger定时器" style="rounded=0;whiteSpace=wrap;html=1;" parent="WIyWlLk6GJQsqaUBKTNV-1" vertex="1">
          <mxGeometry x="-1.5" y="410" width="120" height="60" as="geometry" />
        </mxCell>
        <mxCell id="Cis5JP788cvHrnFn9T93-30" style="edgeStyle=orthogonalEdgeStyle;rounded=0;orthogonalLoop=1;jettySize=auto;html=1;exitX=1;exitY=0.5;exitDx=0;exitDy=0;entryX=0;entryY=0.5;entryDx=0;entryDy=0;dashed=1;" parent="WIyWlLk6GJQsqaUBKTNV-1" source="Cis5JP788cvHrnFn9T93-24" target="Cis5JP788cvHrnFn9T93-28" edge="1">
          <mxGeometry relative="1" as="geometry" />
        </mxCell>
        <mxCell id="Cis5JP788cvHrnFn9T93-31" value="告知同步任务结束" style="edgeLabel;html=1;align=center;verticalAlign=middle;resizable=0;points=[];" parent="Cis5JP788cvHrnFn9T93-30" vertex="1" connectable="0">
          <mxGeometry x="0.1244" y="-3" relative="1" as="geometry">
            <mxPoint x="-25" y="24" as="offset" />
          </mxGeometry>
        </mxCell>
        <mxCell id="Cis5JP788cvHrnFn9T93-24" value="启动定时探测线程，利用AOP加计数器判定当前同步任务情况" style="rounded=0;whiteSpace=wrap;html=1;" parent="WIyWlLk6GJQsqaUBKTNV-1" vertex="1">
          <mxGeometry x="-572" y="510" width="120" height="60" as="geometry" />
        </mxCell>
        <mxCell id="Cis5JP788cvHrnFn9T93-40" style="edgeStyle=orthogonalEdgeStyle;rounded=0;orthogonalLoop=1;jettySize=auto;html=1;exitX=0.5;exitY=1;exitDx=0;exitDy=0;" parent="WIyWlLk6GJQsqaUBKTNV-1" source="Cis5JP788cvHrnFn9T93-28" edge="1">
          <mxGeometry relative="1" as="geometry">
            <mxPoint x="-142" y="520" as="targetPoint" />
            <Array as="points">
              <mxPoint x="-307" y="520" />
            </Array>
          </mxGeometry>
        </mxCell>
        <mxCell id="Cis5JP788cvHrnFn9T93-41" value="&lt;span style=&quot;background-color: rgb(153, 255, 51);&quot;&gt;发送停机信息kill -15&lt;/span&gt;" style="edgeLabel;html=1;align=center;verticalAlign=middle;resizable=0;points=[];fontStyle=1" parent="Cis5JP788cvHrnFn9T93-40" vertex="1" connectable="0">
          <mxGeometry x="-0.2651" y="3" relative="1" as="geometry">
            <mxPoint x="116" y="-7" as="offset" />
          </mxGeometry>
        </mxCell>
        <mxCell id="Cis5JP788cvHrnFn9T93-42" style="edgeStyle=orthogonalEdgeStyle;rounded=0;orthogonalLoop=1;jettySize=auto;html=1;exitX=0.5;exitY=1;exitDx=0;exitDy=0;dashed=1;strokeWidth=2;" parent="WIyWlLk6GJQsqaUBKTNV-1" source="Cis5JP788cvHrnFn9T93-28" edge="1">
          <mxGeometry relative="1" as="geometry">
            <mxPoint x="190" y="520" as="targetPoint" />
            <Array as="points">
              <mxPoint x="-307" y="520" />
            </Array>
          </mxGeometry>
        </mxCell>
        <mxCell id="v7aO1mbHzOOfTeijfpOA-3" style="edgeStyle=orthogonalEdgeStyle;rounded=0;orthogonalLoop=1;jettySize=auto;html=1;exitX=0.5;exitY=1;exitDx=0;exitDy=0;entryX=0.5;entryY=0;entryDx=0;entryDy=0;" edge="1" parent="WIyWlLk6GJQsqaUBKTNV-1" source="Cis5JP788cvHrnFn9T93-28" target="v7aO1mbHzOOfTeijfpOA-2">
          <mxGeometry relative="1" as="geometry" />
        </mxCell>
        <mxCell id="Cis5JP788cvHrnFn9T93-28" value="脚本阻塞等待同步任务执完毕" style="rounded=0;whiteSpace=wrap;html=1;" parent="WIyWlLk6GJQsqaUBKTNV-1" vertex="1">
          <mxGeometry x="-367" y="410" width="120" height="60" as="geometry" />
        </mxCell>
        <mxCell id="Cis5JP788cvHrnFn9T93-32" value="&lt;b&gt;block&lt;/b&gt;" style="edgeLabel;html=1;align=center;verticalAlign=middle;resizable=0;points=[];" parent="WIyWlLk6GJQsqaUBKTNV-1" vertex="1" connectable="0">
          <mxGeometry x="-307" y="380" as="geometry" />
        </mxCell>
        <mxCell id="Cis5JP788cvHrnFn9T93-45" value="&lt;span style=&quot;background-color: rgb(153, 255, 51);&quot;&gt;发送停机信息kill -15&lt;/span&gt;" style="edgeLabel;html=1;align=center;verticalAlign=middle;resizable=0;points=[];fontStyle=1" parent="WIyWlLk6GJQsqaUBKTNV-1" vertex="1" connectable="0">
          <mxGeometry x="-22" y="510" as="geometry" />
        </mxCell>
        <mxCell id="v7aO1mbHzOOfTeijfpOA-37" style="edgeStyle=orthogonalEdgeStyle;rounded=0;orthogonalLoop=1;jettySize=auto;html=1;exitX=0.5;exitY=1;exitDx=0;exitDy=0;entryX=0.5;entryY=0;entryDx=0;entryDy=0;" edge="1" parent="WIyWlLk6GJQsqaUBKTNV-1" source="v7aO1mbHzOOfTeijfpOA-2" target="v7aO1mbHzOOfTeijfpOA-6">
          <mxGeometry relative="1" as="geometry" />
        </mxCell>
        <mxCell id="v7aO1mbHzOOfTeijfpOA-2" value="stop脚本持续扫描，监听项目是否运行" style="rounded=0;whiteSpace=wrap;html=1;" vertex="1" parent="WIyWlLk6GJQsqaUBKTNV-1">
          <mxGeometry x="-367" y="634" width="120" height="60" as="geometry" />
        </mxCell>
        <mxCell id="v7aO1mbHzOOfTeijfpOA-4" value="&lt;span style=&quot;background-color: rgb(153, 255, 51);&quot;&gt;1&lt;/span&gt;" style="edgeLabel;html=1;align=center;verticalAlign=middle;resizable=0;points=[];fontStyle=1" vertex="1" connectable="0" parent="WIyWlLk6GJQsqaUBKTNV-1">
          <mxGeometry x="-187" y="510" as="geometry">
            <mxPoint x="-11" y="27" as="offset" />
          </mxGeometry>
        </mxCell>
        <mxCell id="v7aO1mbHzOOfTeijfpOA-5" value="&lt;span style=&quot;background-color: rgb(153, 255, 51);&quot;&gt;2&lt;/span&gt;" style="edgeLabel;html=1;align=center;verticalAlign=middle;resizable=0;points=[];fontStyle=1" vertex="1" connectable="0" parent="WIyWlLk6GJQsqaUBKTNV-1">
          <mxGeometry x="-307" y="540" as="geometry">
            <mxPoint x="-11" y="27" as="offset" />
          </mxGeometry>
        </mxCell>
        <mxCell id="v7aO1mbHzOOfTeijfpOA-28" style="edgeStyle=orthogonalEdgeStyle;rounded=0;orthogonalLoop=1;jettySize=auto;html=1;exitX=0.5;exitY=1;exitDx=0;exitDy=0;entryX=0.5;entryY=0;entryDx=0;entryDy=0;" edge="1" parent="WIyWlLk6GJQsqaUBKTNV-1" source="v7aO1mbHzOOfTeijfpOA-6" target="v7aO1mbHzOOfTeijfpOA-27">
          <mxGeometry relative="1" as="geometry" />
        </mxCell>
        <mxCell id="v7aO1mbHzOOfTeijfpOA-30" style="edgeStyle=orthogonalEdgeStyle;rounded=0;orthogonalLoop=1;jettySize=auto;html=1;exitX=0;exitY=0.5;exitDx=0;exitDy=0;entryX=0;entryY=0.5;entryDx=0;entryDy=0;" edge="1" parent="WIyWlLk6GJQsqaUBKTNV-1" source="v7aO1mbHzOOfTeijfpOA-6" target="v7aO1mbHzOOfTeijfpOA-2">
          <mxGeometry relative="1" as="geometry">
            <Array as="points">
              <mxPoint x="-400" y="765" />
              <mxPoint x="-400" y="664" />
            </Array>
          </mxGeometry>
        </mxCell>
        <mxCell id="v7aO1mbHzOOfTeijfpOA-31" value="N" style="edgeLabel;html=1;align=center;verticalAlign=middle;resizable=0;points=[];" vertex="1" connectable="0" parent="v7aO1mbHzOOfTeijfpOA-30">
          <mxGeometry x="0.0249" y="-2" relative="1" as="geometry">
            <mxPoint y="8" as="offset" />
          </mxGeometry>
        </mxCell>
        <mxCell id="v7aO1mbHzOOfTeijfpOA-6" value="超时未停机" style="rhombus;whiteSpace=wrap;html=1;" vertex="1" parent="WIyWlLk6GJQsqaUBKTNV-1">
          <mxGeometry x="-369.25" y="730" width="124.5" height="70" as="geometry" />
        </mxCell>
        <mxCell id="v7aO1mbHzOOfTeijfpOA-11" style="edgeStyle=orthogonalEdgeStyle;rounded=0;orthogonalLoop=1;jettySize=auto;html=1;exitX=0.5;exitY=1;exitDx=0;exitDy=0;entryX=0.5;entryY=0;entryDx=0;entryDy=0;" edge="1" parent="WIyWlLk6GJQsqaUBKTNV-1" source="v7aO1mbHzOOfTeijfpOA-8">
          <mxGeometry relative="1" as="geometry">
            <mxPoint x="268" y="570" as="targetPoint" />
          </mxGeometry>
        </mxCell>
        <mxCell id="v7aO1mbHzOOfTeijfpOA-8" value="shutdownHock钩子停机监听，await阻塞等待" style="rounded=1;whiteSpace=wrap;html=1;" vertex="1" parent="WIyWlLk6GJQsqaUBKTNV-1">
          <mxGeometry x="193" y="490" width="150" height="50" as="geometry" />
        </mxCell>
        <mxCell id="v7aO1mbHzOOfTeijfpOA-17" style="edgeStyle=orthogonalEdgeStyle;rounded=0;orthogonalLoop=1;jettySize=auto;html=1;exitX=0.5;exitY=1;exitDx=0;exitDy=0;" edge="1" parent="WIyWlLk6GJQsqaUBKTNV-1">
          <mxGeometry relative="1" as="geometry">
            <mxPoint x="268" y="780" as="targetPoint" />
            <mxPoint x="268" y="630" as="sourcePoint" />
          </mxGeometry>
        </mxCell>
        <mxCell id="v7aO1mbHzOOfTeijfpOA-22" style="edgeStyle=orthogonalEdgeStyle;rounded=0;orthogonalLoop=1;jettySize=auto;html=1;exitX=1;exitY=0.5;exitDx=0;exitDy=0;entryX=1;entryY=0.5;entryDx=0;entryDy=0;" edge="1" parent="WIyWlLk6GJQsqaUBKTNV-1" source="v7aO1mbHzOOfTeijfpOA-10" target="v7aO1mbHzOOfTeijfpOA-8">
          <mxGeometry relative="1" as="geometry" />
        </mxCell>
        <mxCell id="v7aO1mbHzOOfTeijfpOA-10" value="异步执行完毕" style="rhombus;whiteSpace=wrap;html=1;" vertex="1" parent="WIyWlLk6GJQsqaUBKTNV-1">
          <mxGeometry x="168" y="570" width="201" height="60" as="geometry" />
        </mxCell>
        <mxCell id="v7aO1mbHzOOfTeijfpOA-13" value="N" style="edgeLabel;html=1;align=center;verticalAlign=middle;resizable=0;points=[];" vertex="1" connectable="0" parent="WIyWlLk6GJQsqaUBKTNV-1">
          <mxGeometry x="288" y="510" as="geometry">
            <mxPoint x="108" y="49" as="offset" />
          </mxGeometry>
        </mxCell>
        <mxCell id="v7aO1mbHzOOfTeijfpOA-18" style="edgeStyle=orthogonalEdgeStyle;rounded=0;orthogonalLoop=1;jettySize=auto;html=1;exitX=0.5;exitY=1;exitDx=0;exitDy=0;" edge="1" parent="WIyWlLk6GJQsqaUBKTNV-1" source="v7aO1mbHzOOfTeijfpOA-14">
          <mxGeometry relative="1" as="geometry">
            <mxPoint x="270" y="720" as="targetPoint" />
            <Array as="points">
              <mxPoint x="-102" y="720" />
            </Array>
          </mxGeometry>
        </mxCell>
        <mxCell id="v7aO1mbHzOOfTeijfpOA-20" value="处理完毕，发送处理结束信号" style="edgeLabel;html=1;align=center;verticalAlign=middle;resizable=0;points=[];" vertex="1" connectable="0" parent="v7aO1mbHzOOfTeijfpOA-18">
          <mxGeometry x="-0.839" y="1" relative="1" as="geometry">
            <mxPoint x="-9" y="2" as="offset" />
          </mxGeometry>
        </mxCell>
        <mxCell id="v7aO1mbHzOOfTeijfpOA-14" value="完成异步业务处理" style="rounded=0;whiteSpace=wrap;html=1;" vertex="1" parent="WIyWlLk6GJQsqaUBKTNV-1">
          <mxGeometry x="-162" y="570" width="120" height="50" as="geometry" />
        </mxCell>
        <mxCell id="v7aO1mbHzOOfTeijfpOA-19" style="edgeStyle=orthogonalEdgeStyle;rounded=0;orthogonalLoop=1;jettySize=auto;html=1;exitX=0.5;exitY=1;exitDx=0;exitDy=0;" edge="1" parent="WIyWlLk6GJQsqaUBKTNV-1" source="v7aO1mbHzOOfTeijfpOA-16">
          <mxGeometry relative="1" as="geometry">
            <mxPoint x="59" y="720" as="targetPoint" />
          </mxGeometry>
        </mxCell>
        <mxCell id="v7aO1mbHzOOfTeijfpOA-16" value="定时器异步任务组作业调度" style="rounded=0;whiteSpace=wrap;html=1;" vertex="1" parent="WIyWlLk6GJQsqaUBKTNV-1">
          <mxGeometry x="-1.5" y="570" width="120" height="50" as="geometry" />
        </mxCell>
        <mxCell id="v7aO1mbHzOOfTeijfpOA-21" value="处理完毕，发送处理结束信号" style="edgeLabel;html=1;align=center;verticalAlign=middle;resizable=0;points=[];" vertex="1" connectable="0" parent="WIyWlLk6GJQsqaUBKTNV-1">
          <mxGeometry x="70" y="660" as="geometry" />
        </mxCell>
        <mxCell id="v7aO1mbHzOOfTeijfpOA-24" value="&lt;span style=&quot;background-color: rgb(153, 255, 51);&quot;&gt;执行唤醒shutdownHock钩子&lt;/span&gt;" style="edgeLabel;html=1;align=center;verticalAlign=middle;resizable=0;points=[];fontStyle=1" vertex="1" connectable="0" parent="WIyWlLk6GJQsqaUBKTNV-1">
          <mxGeometry x="160" y="710" as="geometry" />
        </mxCell>
        <mxCell id="v7aO1mbHzOOfTeijfpOA-26" value="Y" style="edgeLabel;html=1;align=center;verticalAlign=middle;resizable=0;points=[];" vertex="1" connectable="0" parent="WIyWlLk6GJQsqaUBKTNV-1">
          <mxGeometry x="168" y="640" as="geometry">
            <mxPoint x="108" y="49" as="offset" />
          </mxGeometry>
        </mxCell>
        <mxCell id="v7aO1mbHzOOfTeijfpOA-27" value="kill -9 强制停机" style="rounded=1;whiteSpace=wrap;html=1;" vertex="1" parent="WIyWlLk6GJQsqaUBKTNV-1">
          <mxGeometry x="-375.5" y="850" width="137" height="40" as="geometry" />
        </mxCell>
        <mxCell id="v7aO1mbHzOOfTeijfpOA-29" value="Y" style="edgeLabel;html=1;align=center;verticalAlign=middle;resizable=0;points=[];" vertex="1" connectable="0" parent="WIyWlLk6GJQsqaUBKTNV-1">
          <mxGeometry x="-402" y="780" as="geometry">
            <mxPoint x="108" y="49" as="offset" />
          </mxGeometry>
        </mxCell>
        <mxCell id="v7aO1mbHzOOfTeijfpOA-33" value="钩子关闭，项目停机" style="rounded=1;whiteSpace=wrap;html=1;" vertex="1" parent="WIyWlLk6GJQsqaUBKTNV-1">
          <mxGeometry x="199.5" y="780" width="137" height="40" as="geometry" />
        </mxCell>
        <mxCell id="v7aO1mbHzOOfTeijfpOA-38" value="&lt;h1&gt;异步任务&lt;/h1&gt;&lt;p&gt;依赖线程监控及shutdownHock停机钩子处理函数&lt;/p&gt;" style="text;html=1;strokeColor=none;fillColor=none;spacing=5;spacingTop=-20;whiteSpace=wrap;overflow=hidden;rounded=0;" vertex="1" parent="WIyWlLk6GJQsqaUBKTNV-1">
          <mxGeometry x="210" y="310" width="190" height="120" as="geometry" />
        </mxCell>
      </root>
    </mxGraphModel>
  </diagram>
</mxfile>
